<?xml version="1.0" encoding="UTF-8" standalone="no"?>
<svg
   xmlns:dc="http://purl.org/dc/elements/1.1/"
   xmlns:cc="http://creativecommons.org/ns#"
   xmlns:rdf="http://www.w3.org/1999/02/22-rdf-syntax-ns#"
   xmlns:svg="http://www.w3.org/2000/svg"
   xmlns="http://www.w3.org/2000/svg"
   xmlns:sodipodi="http://sodipodi.sourceforge.net/DTD/sodipodi-0.dtd"
   xmlns:inkscape="http://www.inkscape.org/namespaces/inkscape"
   id="svg2"
   viewBox="0 0 641.22 483.62"
   version="1.1"
   inkscape:version="0.91 r13725"
   sodipodi:docname="blue-house.svg">
  <defs
     id="defs3413" />
  <sodipodi:namedview
     pagecolor="#ffffff"
     bordercolor="#666666"
     borderopacity="1"
     objecttolerance="10"
     gridtolerance="10"
     guidetolerance="10"
     inkscape:pageopacity="0"
     inkscape:pageshadow="2"
     inkscape:window-width="1119"
     inkscape:window-height="652"
     id="namedview3411"
     showgrid="false"
     showguides="false"
     inkscape:zoom="0.71678898"
     inkscape:cx="315.70841"
     inkscape:cy="217.65497"
     inkscape:window-x="1339"
     inkscape:window-y="43"
     inkscape:window-maximized="0"
     inkscape:current-layer="svg2" />
  <path
     id="path3381"
     d="m 140.6627,0.00216 c -0.36817,0.06891251 -0.73631,0.13806577 -1.10448,0.20697828 C 133.97585,1.7252888 130.77563,6.9970959 128.44419,11.875365 108.21732,37.148803 87.0365,61.654874 68.11189,87.94244 45.207508,118.53102 25.063388,151.09519 4.1902693,183.06578 c -1.1842269,2.50229 -4.89481959,4.40596 -4.07275952,7.3862 1.82806232,5.79678 7.98136292,8.25371 12.70141822,11.2517 7.44541,4.28898 15.18257,8.38837 23.607802,10.35418 4.340435,4.71028 2.375074,11.52329 2.554051,17.25747 -0.222288,55.36549 1.531648,110.71893 1.104481,166.08216 10.329354,7.75116 22.590665,12.18683 34.37651,17.18826 25.820378,9.21667 52.610488,15.25103 78.760378,23.40091 44.62161,12.86242 89.16497,26.15967 134.33426,36.99985 11.1366,2.46325 22.22203,5.46846 33.47975,7.31713 4.59118,0.61585 9.20839,0.33734 13.80582,-0.0692 1.13457,1.66082 4.56846,5.49871 5.66046,1.8638 1.39653,-3.22082 5.17957,-4.06131 8.35225,-3.79664 9.01806,-0.32801 17.70585,-2.94737 26.30036,-5.45335 74.75051,-19.33462 149.43332,-38.86485 224.28916,-57.77065 2.34107,-1.62681 6.17038,0.65934 7.80005,-2.27795 -0.15242,-3.61354 -2.00493,-7.03863 -1.31159,-10.69949 -0.17119,-17.05058 0.9486,-34.10116 1.03542,-51.15099 0.73237,-32.77106 1.47718,-65.52858 2.27795,-98.29813 -1.38217,-2.63282 3.29764,-5.13489 4.83207,-2.62312 6.39337,2.89944 12.59911,7.12861 15.87696,13.52973 -0.71033,-2.48386 2.64411,-5.79227 4.83208,-3.58955 1.74034,2.88342 2.22958,6.67406 5.10818,8.76679 2.87303,-2.71701 0.37742,-6.73312 -0.89737,-9.59509 -8.16041,-22.5696 -15.49102,-45.6583 -27.40476,-66.61343 -17.13183,-27.10082 -24.11863,-32.16769 -27.61165,-40.86527 -3.49347,-8.69757 -16.16961,-23.16017 -24.91985,-34.23883 C 546.20155,101.60698 531.836,86.89837 515.36621,74.831157 502.9755,67.104079 487.92985,66.648173 473.87952,64.683865 443.66484,61.011265 413.55624,56.603948 383.51836,51.775559 383.15416,51.569242 382.75927,51.486254 382.27583,51.56858 365.55176,48.873168 348.85101,46.07529 332.16004,43.14711 293.07701,36.289412 254.02408,29.173518 215.15171,21.195917 200.44009,18.07898 185.71042,14.840167 171.18011,10.979412 161.03507,7.3536806 151.8515,0.07077158 140.66902,0.0038151 Z"
     inkscape:connector-curvature="0"
     style="stroke:none;stroke-opacity:1" />
  <path
     id="path3379"
     d="m 158.54534,24.505222 c 0.75556,-0.0045 1.5063,0.110005 2.23071,0.287831 14.29032,3.318784 28.59342,6.550375 42.95822,9.570262 -13.98864,8.462848 -26.26274,19.511419 -39.57654,28.998927 -16.88282,13.148297 -34.71807,25.107928 -51.23375,38.712878 -4.04244,14.63639 13.99692,15.79195 13.96005,17.70134 -0.0793,4.0778 0.0904,8.22737 -0.5037,12.01681 -0.59964,19.84921 -2.47543,39.88951 0.5037,59.58073 6.73861,10.83868 22.80207,10.55204 33.6761,15.68663 36.23474,11.07415 72.82383,20.82422 109.37228,30.79772 2.36041,-0.62098 4.06404,-1.75478 5.32485,-3.23806 1.79142,-0.37415 3.28869,-1.58657 4.67725,-2.73438 1.87057,-1.61568 3.09354,-3.84368 4.82117,-5.61268 3.33729,-3.84188 6.86303,-7.46181 10.3617,-11.15315 1.99447,-2.41329 4.03108,-4.84328 5.61268,-7.55555 9.93439,-14.88465 19.97259,-29.70159 29.64668,-44.75777 4.89835,-8.10249 8.76979,-16.782 12.80824,-25.32911 6.39894,-13.83968 12.63371,-27.7102 18.78092,-41.663483 0.66348,-1.633362 1.55204,-3.218876 2.08679,-4.893089 l -0.21582,0.359789 -86.13312,138.298983 c 2.0679,-8.06035 -0.71731,-19.79354 1.51111,-27.1279 1.18934,-18.45216 -2.87883,-35.66599 -0.86351,-54.0399 -0.40115,1.14796 12.94667,1.76961 20.50824,-6.47612 16.5059,-18.00001 39.82857,-38.50901 51.37744,-50.297861 13.37173,-11.248689 17.31841,-14.349752 26.40869,-22.234818 l -6.04444,10.074317 c 2.5396,-3.656877 4.9611,-7.390942 7.33963,-11.153144 2.18715,-1.90367 4.27137,-3.756333 7.26771,-6.404199 0.005,-0.246829 0.009,-0.490979 0,-0.719564 32.03228,4.070277 64.03146,8.156654 96.06374,12.232723 2.8185,-1.714838 6.40819,3.304867 3.38198,5.109005 -18.63271,17.981201 -35.43803,37.645341 -53.17623,56.486441 -39.78193,43.65939 -78.08329,88.87909 -111.3885,137.72722 -1.38081,2.71844 -4.17267,5.48555 -7.48355,4.38942 -5.83086,-0.86277 -11.07867,-3.90913 -16.9099,-4.82117 C 215.07003,251.53017 134.36114,231.10469 54.050977,209.15199 L 8.646208,196.91926 C 5.5761406,195.24445 6.8301828,190.73384 9.2218607,189.00411 42.267517,150.51241 74.973124,111.62799 104.42043,70.272963 118.64906,52.005881 136.90862,37.3221 156.30193,24.868194 c 0.71485,-0.232271 1.47514,-0.355426 2.2307,-0.359797 z"
     inkscape:connector-curvature="0"
     style="fill:#375a7f;fill-opacity:1" />
  <path
     id="path3377"
     d="m 207.89754,34.450893 c 22.05651,4.598029 44.22738,8.689296 66.54496,11.803901 30.70819,4.12813 61.48184,7.897103 92.22691,11.8039 -4.08548,2.322412 -8.02651,5.338313 -9.94041,6.971976 -28.78301,21.514095 -43.7301,47.73621 -71.79089,70.13428 -10.86876,1.86222 -44.3929,-6.38396 -55.15483,-8.2838 -27.06171,-7.08963 -71.96919,-13.68846 -98.92256,-21.05442 -5.07199,-9.976519 12.60738,-15.682114 18.98329,-21.192106 14.41897,-9.359613 23.10751,-25.28698 37.89737,-34.308049 6.84318,-5.144214 13.44998,-10.555802 20.15691,-15.876961 z"
     inkscape:connector-curvature="0"
     style="fill:#375a7f;fill-opacity:1" />
  <path
     id="path3375"
     d="m 502.31044,81.109779 c 19.83492,13.636553 33.93114,33.551211 48.66608,52.186181 13.78476,17.72692 26.90597,35.93833 40.17539,54.05043 0.66722,0.21692 1.13194,0.47189 0.82838,0.69029 l 2.96828,4.90114 c 2.92224,5.10818 24.96574,46.87104 27.88775,51.97929 -2.86935,-0.7864 -16.69247,-10.3948 -25.33362,-15.73853 -0.14336,-1.94791 -0.77241,-3.88686 -1.5877,-5.59139 -4.88699,-13.41913 -7.7519,-14.2038 -23.3317,-36.30997 -11.1727,-16.03947 -22.51543,-31.98564 -34.10041,-47.69935 -9.34231,-12.74656 -18.52663,-25.57813 -28.92369,-37.41438 -3.15847,-3.571637 -6.20897,-7.288549 -9.52588,-10.699493 -1.47778,-1.453407 -3.10595,-2.81789 -4.83207,-3.934709 0.62402,-0.687688 1.23989,-1.383065 1.86379,-2.070911 1.9045,-1.22583 2.55398,-4.512716 5.24623,-4.348861 z"
     inkscape:connector-curvature="0"
     style="fill:#375a7f;fill-opacity:1" />
  <path
     id="path3373"
     d="m 491.53722,91.469226 c 0.60691,0.15661 1.16098,0.457448 1.72575,0.828379 6.69098,6.343863 12.89401,13.210735 18.63797,20.501475 4.254,5.38819 8.48392,10.82363 12.56375,16.35995 6.17865,8.19276 12.22369,16.49988 18.29266,24.78142 15.91608,22.38001 31.64484,44.89695 46.31884,68.20157 0.62703,0.98448 1.23651,1.98402 1.86379,2.96828 -6e-4,0.1036 0,0.38981 0,0.4832 0.10758,0.0245 0.27574,0.14492 0.41418,0.20698 0.17804,0.27953 0.37408,0.54887 0.55224,0.82838 0.99449,54.47926 1.42926,108.98108 0.55223,163.46409 1.15835,2.57429 -0.51338,6.51825 -3.65853,6.35071 -44.72618,11.36003 -89.16497,23.74623 -133.50671,36.51686 -0.28597,-22.88482 -0.65396,-45.79823 -0.34515,-68.68456 0.48993,-16.52395 1.73621,-32.99826 2.62312,-49.49438 0.36976,-6.15202 0.6575,-12.27034 0.82838,-18.43109 -0.83869,-13.80808 -1.37442,-27.64174 -1.51864,-41.48668 -0.28773,-4.16311 0.0817,-8.61256 -1.38058,-12.49453 0.74885,-3.14304 0.076,-8.80064 -3.38243,-8.42147 -10.13902,2.91283 -20.15841,6.20634 -30.37341,8.836 -12.6465,3.5353 -25.47205,6.46303 -38.24269,9.45741 -0.18157,0.24272 -0.31274,0.51029 -0.4832,0.75932 -0.007,0.0111 -0.0616,-0.0111 -0.0689,0 -0.6407,-0.0651 -1.29564,-0.049 -1.93286,0.0689 -2.25094,0.40731 -3.57036,2.90057 -3.65853,5.5224 -0.7218,5.84786 -0.60384,11.84303 -0.89737,17.74046 -0.48606,14.84252 0.029,29.67602 0,44.52381 1.14496,-10.91843 0.0413,-21.89929 0.48321,-32.85833 0.17605,-8.23791 0.15683,-16.48409 0.55223,-24.71296 0.35289,14.9486 -0.0985,29.91751 0,44.86911 -0.0457,14.45734 -0.45871,28.87931 -1.51863,43.28173 -0.75962,11.77681 -1.02188,23.60328 -0.6903,35.41245 0.29558,21.73152 0.8271,43.50366 0.13806,65.23292 -0.20146,1.28729 -0.25911,2.81646 0.0689,4.14174 -6.78653,1.99591 -13.57937,4.01228 -20.36379,6.00562 -2.00667,1.60628 -5.3238,2.89583 -7.38621,0.6903 -2.17759,-19.89585 0.76459,-39.91434 -0.20698,-59.84856 1.2727,-44.84203 2.94985,-89.67654 1.65669,-134.53738 0.44899,-7.18105 -2.17872,-15.10734 2.07091,-21.60663 46.209,-52.30957 93.35539,-103.78255 140.27006,-155.451886 z"
     inkscape:connector-curvature="0"
     style="fill:#ffcc68;fill-opacity:1" />
  <path
     id="path3371"
     d="m 133.31253,118.80101 c 1.62381,-0.13033 4.31779,1.27451 6.04865,1.31829 41.25798,8.81418 85.88485,17.07992 127.02171,26.4433 6.61974,2.80404 2.66795,17.8375 5.04055,28.45951 1.02022,16.5864 0.82206,33.43385 -1.55091,49.86302 -7.8294,9.83733 -22.6975,-0.94913 -33.03512,-1.31829 -32.42801,-8.3011 -64.80109,-16.87905 -97.01167,-25.90088 -11.64065,-8.42673 -5.27068,-27.08953 -8.29734,-39.70368 -0.22929,-12.78117 -2.3589,-25.78652 0.62036,-38.38563 0.21493,-0.48411 0.62193,-0.73205 1.16324,-0.77549 z"
     inkscape:connector-curvature="0"
     style="fill:#ffcc68;fill-opacity:1" />
  <path
     id="path3369"
     d="m 143.93529,127.33232 c -0.1544,-0.005 -0.31055,0.0177 -0.46527,0.0775 -2.59264,1.66188 -3.22692,5.04627 -2.86927,7.9099 0.96628,12.90605 1.71574,25.88808 3.64469,38.69558 0.2288,1.16165 0.55889,2.29322 0.93055,3.41207 -0.0132,0.0132 0.0132,0.0645 0,0.0775 -0.80356,0.8517 -1.33808,1.91511 -1.39586,3.10189 -0.19638,2.24019 0.73078,4.30651 1.47342,6.35884 0.39154,2.10845 1.13758,4.35014 3.02433,5.58334 2.24394,1.53609 5.08162,1.63946 7.59993,2.48153 12.02283,3.25288 24.27361,5.61682 36.4469,8.21985 11.22311,2.37943 22.39506,4.72562 33.57754,7.28945 5.66994,1.33868 11.39314,2.69692 16.98288,4.34262 3.1137,1.07709 6.25666,2.04232 9.15046,3.64469 -0.25424,0.093 -0.50452,0.17031 -0.77549,0.23251 -0.68559,0.0564 -1.42715,0.22001 -2.17134,0.3102 1.53601,0.112 3.13702,0.32061 4.65279,0.15507 0.13453,0.0265 0.25163,-0.0155 0.38771,0 1.2387,0.13276 2.48356,-0.17119 3.10189,-1.24073 0.0154,-0.026 0.0632,-0.0506 0.0773,-0.0773 1.55715,-1.01428 2.80442,-2.54209 3.02433,-4.42018 0.81461,-4.48669 0.39054,-9.04289 0.69791,-13.57035 0.28478,-10.20221 0.0469,-20.45332 -0.69791,-30.63071 -0.28659,-3.32127 -0.57817,-6.77223 -1.93866,-9.84862 -1.47108,-2.46994 -4.0526,-4.11639 -6.66901,-5.19567 -7.51982,-2.70489 -15.18558,-4.74902 -22.95404,-6.59145 -23.13534,-5.72035 -46.35645,-11.39013 -69.55951,-16.8279 l -13.88105,-3.33451 c -0.47305,0.0864 -0.93318,-0.14004 -1.39586,-0.15506 z"
     inkscape:connector-curvature="0" />
  <path
     id="path3367"
     d="m 152.62459,133.07252 c 0.56255,0.025 1.15029,0.27111 1.70603,0.31021 7.3692,1.40134 14.64767,3.23602 21.94593,4.96298 6.38042,1.40247 12.73226,3.00943 19.07658,4.57523 -0.52697,1.4996 -0.64022,3.3005 -0.54283,4.88542 0.26686,8.51551 0.97711,17.00619 1.31829,25.51267 -0.13895,2.32775 -0.35719,4.63963 -0.31018,6.9792 -0.0601,4.61503 0.66831,9.18206 0.62036,13.80357 -0.007,1.83581 0.16677,5.00842 -1.86109,4.80792 -0.0468,0.0224 -0.0402,0.0546 -0.0773,0.0775 -2.04345,-0.45595 -4.08231,-0.92333 -6.12622,-1.39586 -9.65678,-2.51884 -19.34139,-5.02226 -29.00268,-7.52207 -2.34995,-0.97561 -4.0183,-3.08692 -5.19568,-5.27324 -0.41298,-0.72409 -0.82665,-1.44776 -1.24072,-2.17134 -1.13841,-5.70552 -1.80587,-11.50523 -2.40397,-17.29283 -0.87058,-8.58924 -1.31761,-17.27026 -1.47341,-25.90087 -0.0453,-1.17633 0.13938,-2.42511 0.62037,-3.56713 0.48098,-1.14209 1.25848,-2.17751 2.40397,-2.71414 0.18445,-0.0501 0.35531,-0.0859 0.54283,-0.0775 z"
     inkscape:connector-curvature="0"
     style="fill:#fdf0b2" />
  <path
     id="path3365"
     d="m 203.18049,144.86138 c 1.65909,0.41865 3.30502,0.89345 4.96298,1.31829 -0.70066,1.58062 -1.29444,3.23332 -2.3264,4.57523 2.09476,-2.59821 3.09866,1.86711 2.79171,3.79982 1.04332,10.08259 1.07386,20.27803 1.70603,30.39824 0.20676,4.38196 0.41359,8.72315 0.62038,13.10541 -0.22235,1.34869 -0.66336,2.95331 -0.69793,4.42019 -3.36475,-0.7491 -6.721,-1.51111 -10.08109,-2.24884 0.9234,-0.29019 1.88381,-0.64983 2.79171,-0.93054 0.82086,-0.63337 2.59746,-2.64494 1.39585,-3.72226 -0.92505,0.86352 -1.29782,2.39261 -2.3264,3.10189 1.24163,-2.76846 0.78084,-6.04985 0.62039,-9.07298 -0.23773,-3.31908 -0.33231,-6.67202 -0.38774,-10.0036 0.21692,-8.85631 -0.53008,-17.62083 -1.00811,-26.44329 -0.40009,-2.87063 1.03249,-5.36404 2.01622,-7.75492 0.002,-0.20123 -0.0528,-0.35602 -0.0773,-0.54282 z"
     inkscape:connector-curvature="0"
     style="fill:#ffcc68;fill-opacity:1" />
  <path
     id="path3363"
     d="m 211.79455,147.11081 c 8.58322,2.21874 17.16569,4.44862 25.7459,6.66902 4.01949,1.25788 8.21533,2.15005 11.94233,4.18756 1.15571,0.55675 2.22378,1.22779 3.17938,2.09378 0.95567,0.86592 1.80067,1.90503 2.32639,3.10189 1.02053,2.31677 0.75481,4.97645 1.16324,7.44451 0.69905,9.73502 1.62885,19.47155 1.7836,29.23516 -0.10647,3.95637 0.12436,7.99264 -0.85305,11.86484 -0.14535,0.71819 -0.34891,1.39472 -0.62037,2.09378 -0.97568,-0.96117 -2.40795,-1.64864 -3.72225,-1.93866 -4.1428,-1.33138 -8.40266,-1.99018 -12.64048,-2.94676 -8.49219,-1.66714 -16.97008,-3.64694 -25.43519,-5.50585 0.22045,-0.74154 0.28476,-1.48629 0.23251,-2.17135 -0.63237,-8.48993 -0.11574,-17.00694 -0.31018,-25.51267 -0.27505,-8.86609 -1.38735,-17.67275 -2.48145,-26.4433 -0.16279,-0.60867 -0.21272,-1.40014 -0.3102,-2.17135 z"
     inkscape:connector-curvature="0"
     style="fill:#fdf0b2" />
  <path
     id="path3361"
     d="m 256.61026,184.01963 c 0.0771,0.0154 0.31559,0.0563 0.46527,0.0775 -0.45847,-0.0804 -0.54248,-0.0923 -0.46527,-0.0775 z"
     inkscape:connector-curvature="0"
     style="fill:#5251a1" />
  <path
     id="path3359"
     d="m 552.76855,211.72005 c -0.36941,0.0133 -0.77452,0.10073 -1.24253,0.20698 -10.13902,2.98656 -20.15842,6.08055 -30.37342,8.97368 -12.6465,3.68802 -25.47205,7.19345 -38.24268,10.69949 -3.16155,2.18707 -4.49331,4.71885 -4.76309,7.04104 -0.8177,0.70394 -1.32965,1.5339 -1.38058,2.27795 -0.7218,2.99777 -0.60385,5.84643 -0.89737,8.76678 -0.48606,7.28946 0.029,14.2843 0,21.46821 1.14495,-5.54904 0.0415,-10.54377 0.48321,-15.94618 0.17605,-4.02348 0.15683,-8.0092 0.55224,-12.08 0.35287,7.1417 -0.0985,14.47163 0,21.67509 -0.0457,6.99876 -0.45871,14.04807 -1.51864,21.26132 -0.75961,5.87261 -1.02187,11.69707 -0.69029,17.32668 0.29557,10.43393 0.82717,20.81143 0.13805,31.47782 -0.33319,1.10802 -0.39367,2.48401 1.3116,2.69218 0.61177,-0.0132 1.27623,-0.12878 1.93286,-0.27612 -0.13297,6.01171 7.02832,9.87119 8.90446,-0.0689 19.1315,-5.27768 41.99601,-10.82062 60.8845,-16.42917 3.24905,-1.04091 3.49513,-5.04581 5.52241,-7.11002 0.42381,-0.21317 0.74598,-0.49627 1.03542,-0.82838 0.0875,-0.0427 0.18312,-0.10139 0.27611,-0.13806 0.54696,-0.66675 0.65514,-1.60974 0.13806,-2.27795 -0.0499,-0.49768 -0.12171,-0.94303 -0.0689,-1.44964 -0.28037,-11.76178 -0.81341,-23.50474 -0.48321,-35.41246 0.48992,-8.10324 1.80519,-16.3908 2.69218,-24.57453 0.36976,-3.06134 0.65749,-6.09379 0.82838,-9.1121 -0.83869,-6.47522 -1.37442,-13.01589 -1.51864,-19.67317 -0.28941,-1.95528 0.11266,-4.19998 -1.38058,-5.72944 0.63109,-1.14752 0.20587,-2.83836 -2.1399,-2.76117 z"
     inkscape:connector-curvature="0" />
  <path
     id="path3345"
     d="m 50.971107,215.47413 c 0.815665,-0.0934 1.762385,0.057 2.577222,0.57271 l 6.657731,1.86132 c 48.30722,13.7163 96.67312,27.36564 145.03977,40.8773 30.92713,8.4952 61.90616,16.81887 93.06199,24.41204 5.61817,0.72674 11.6918,4.47164 17.11001,1.07386 5.14775,-3.14854 8.43577,-8.42298 12.88574,-12.38469 1.65089,-1.64525 4.78031,-4.62813 6.80097,-1.93286 1.81317,3.34007 0.44086,7.33451 0.85908,10.95302 0.17738,59.59052 1.44573,119.16749 0.42952,178.75876 -0.15241,2.92509 1.48854,6.61552 -0.78745,9.02031 -3.10445,2.0743 -6.54368,-0.78 -9.73577,-1.21702 -89.41323,-5.04243 -171.34088,-42.71448 -256.074683,-67.79457 -5.99584,-1.92571 -12.408767,-3.04479 -18.040634,-5.87028 -5.225013,-4.17582 -4.443277,-11.63839 -4.295296,-17.61105 0.932952,-27.71848 1.38773,-55.45276 1.503361,-83.18403 0.28531,-24.90706 -0.222438,-49.77349 -0.572711,-74.66701 0.09741,-1.72469 1.217856,-2.7079 2.577223,-2.86355 z"
     inkscape:connector-curvature="0"
     style="fill:#ffcc68;fill-opacity:1" />
  <path
     id="path3321"
     d="m 544.35009,223.87002 c 0.097,5.97606 -0.15087,12.03637 -0.0689,18.01656 -0.0457,6.99876 -0.4587,14.04807 -1.51863,21.26132 -0.75962,5.87261 -1.02188,11.69707 -0.6903,17.32668 0.29558,10.43393 0.8271,20.81143 0.13806,31.47782 -0.0698,0.23208 -0.10581,0.44446 -0.13806,0.6903 -6.96197,2.08701 -13.8788,4.21939 -20.916,6.21266 -11.1885,3.26296 -22.52521,6.3559 -33.82431,9.45741 -0.28409,-10.56031 -0.64183,-21.12439 -0.34515,-31.82238 0.48993,-8.10324 1.73621,-16.32158 2.62312,-24.50532 0.36976,-3.06134 0.65749,-6.16286 0.82838,-9.18131 -0.83869,-6.47522 -1.37442,-13.01589 -1.51864,-19.67317 -0.20675,-1.39631 -0.0389,-2.95053 -0.4832,-4.2798 17.37257,-4.75895 37.45124,-9.67032 54.94795,-14.70334 -0.046,0.85982 -0.051,1.75674 -0.13806,2.62311 -0.48606,7.28946 0.029,14.2843 0,21.46821 1.14495,-5.54912 0.0415,-10.54377 0.4832,-15.94618 0.1215,-2.77493 0.19682,-5.57176 0.34515,-8.35226 0.0897,-0.0259 0.18644,-0.0431 0.27612,-0.0689 z"
     inkscape:connector-curvature="0"
     style="fill:#fdf0b2" />
  <path
     id="path3319"
     d="m 444.53979,246.59009 c -0.37094,0.11515 -0.74519,0.20123 -1.10501,0.32914 -12.43359,3.6498 -24.90254,7.15298 -37.42792,10.43844 0.4414,-0.14528 0.91911,-0.11106 1.38713,0.32914 0.35917,0.82055 0.31507,1.83152 0.28212,2.77418 0.10515,8.12881 -0.0631,16.33512 -0.21159,24.49704 -0.57656,22.70427 0.08,45.44464 0.61126,68.1316 0.57146,20.06964 0.72298,40.16562 0.7053,60.25632 -0.12482,3.83382 0.18683,8.01597 -0.14106,11.68428 0.29562,0.097 0.59842,0.1601 0.89338,0.25861 5.67084,2.05278 11.41796,2.95414 17.186,3.94968 5.11179,0.78415 10.19469,1.96815 15.2578,3.31488 0.27974,0.10912 0.59792,0.12714 0.89338,0.18808 0.47645,-20.07792 0.085,-40.17991 -0.18808,-60.25632 -0.33158,-11.80842 -0.0779,-23.62887 0.68179,-35.40569 1.05995,-14.40241 1.4589,-28.82438 1.50464,-43.28172 -0.0985,-14.95236 0.35288,-29.9318 0,-44.8804 -0.3954,8.22812 -0.36468,16.49462 -0.54073,24.73252 -0.44168,10.95905 0.65125,21.92486 -0.49371,32.84328 0.029,-14.84778 -0.48606,-29.68579 0,-44.52831 0.25458,-5.11488 0.25355,-10.27369 0.7053,-15.37592 z"
     inkscape:connector-curvature="0"
     style="fill:#d38d5f" />
  <path
     id="path3307"
     d="m 406.00596,257.35579 c -5.60727,1.47086 -11.2043,2.84715 -16.83316,4.20832 0.23603,2.53442 0.17881,5.14978 0.35265,7.66464 0.14424,13.84494 0.66598,27.66356 1.50464,41.47164 -0.17087,6.1603 -0.4531,12.28012 -0.82289,18.43184 -0.88691,16.49612 -2.14321,32.96516 -2.63312,49.48836 -0.33021,24.47372 0.14282,48.9971 0.42318,73.46856 -0.009,0.15717 0.002,0.3116 0,0.4702 17.16418,-5.04468 34.31106,-10.06378 51.48728,-15.0464 -1.05821,-0.28391 -2.10823,-0.54667 -3.17389,-0.75232 -5.48953,-1.30595 -11.04406,-1.7535 -16.55104,-2.84467 -3.39123,-0.74574 -6.76509,-1.71672 -10.01488,-3.64409 -2.03292,-1.13608 -4.07216,-2.46099 -6.20664,-2.77418 -0.78384,-0.19571 -1.50878,-2.25816 -0.89338,-3.9262 0.11988,-0.14319 0.20985,-0.22709 0.32914,-0.21159 0.001,-10.12397 0.18289,-20.25095 0,-30.37492 -0.13899,-21.7255 -1.21169,-43.3878 -1.57521,-65.09901 -0.14822,-13.39806 -0.0639,-26.88641 1.03444,-40.1784 0.61604,-8.28831 1.49922,-16.59242 1.24599,-24.96799 -0.008,-2.32911 1.0033,-4.94786 2.32753,-5.38376 z"
     inkscape:connector-curvature="0"
     style="fill:#a05a2c" />
  <path
     id="path3305"
     d="m 116.01669,273.7037 c -9.50782,8.91951 -3.37069,22.87053 -2.89921,33.89352 2.6611,13.28371 1.72251,29.24794 14.49645,38.93256 23.75827,15.8085 26.99324,17.97518 55.15484,25.47205 17.42975,3.96774 33.57604,12.40877 52.04851,12.14922 5.95431,-0.81529 21.89853,2.22551 20.22537,2.07091 1.39194,-9.07524 7.74513,-19.37074 4.90106,-29.61357 -1.37885,-16.58415 -3.59955,-33.73328 -12.21843,-48.80376 -9.01354,-8.03101 -23.43853,-8.73217 -35.27403,-12.14921 -40.20097,-8.58773 -53.88868,-13.35594 -94.08514,-21.95119 z"
     inkscape:connector-curvature="0" />
  <path
     id="path3299"
     d="m 133.35015,287.62914 c 24.76336,3.67802 23.20155,6.03654 46.54754,10.62351 -0.87653,1.78142 -1.17129,4.31772 -1.05791,6.48884 0.24269,9.11436 0.95921,18.18733 1.26946,27.29116 -0.12635,2.49131 -0.32484,4.93905 -0.28208,7.44308 -0.0545,4.93928 0.60779,9.81251 0.56419,14.75901 -0.005,1.38036 0.0318,3.46835 -0.56419,4.5167 -9.28137,-3.10279 -18.56801,-6.50726 -33.35862,-12.46895 -15.49478,-5.21756 -21.57052,-18.80198 -21.86317,-30.98129 1.07326,-8.64415 -5.2515,-19.65962 3.24415,-26.71864 1.55189,-0.90369 3.65116,-0.92551 5.50104,-0.95425 z"
     inkscape:connector-curvature="0"
     style="fill:#fdf0b2" />
  <path
     id="path3289"
     d="m 188.02876,299.92957 c 15.75133,3.60813 31.43494,7.44195 47.21862,10.94626 10.81761,5.36968 11.95286,17.56667 14.31063,27.14446 2.42277,9.11887 0.22193,18.39949 0.25215,27.52438 2.11943,4.24271 -3.83262,15.11035 -3.40433,14.17371 -8.42448,-5.50089 -21.56676,-5.07357 -31.52145,-9.30169 -12.2252,-4.46208 -20.21108,-7.2088 -27.73879,-9.93438 0.42568,-0.20235 0.83906,-0.39879 1.26088,-0.56947 0.66733,-0.67426 2.17466,-2.83948 1.19777,-3.98624 -0.75203,0.91925 -1.1181,2.59851 -1.9543,3.35354 1.00939,-2.94707 0.69783,-6.46288 0.56737,-9.68086 -0.19329,-3.53319 -0.27015,-7.08362 -0.31521,-10.63028 0.17649,-9.42732 -0.49399,-18.82831 -0.88263,-28.22027 -0.32526,-3.05585 0.90241,-5.68077 1.70213,-8.22587 0.007,-1.05445 -0.29223,-1.89291 -0.69348,-2.59423 z"
     inkscape:connector-curvature="0"
     style="fill:#fdf0b2" />
  <path
     id="path3287"
     d="m 92.138057,399.54427 0.206978,0.41418 z"
     inkscape:connector-curvature="0"
     style="fill:#5251a1" />
  <path
     id="path4193"
     d="m 397.5875,403.20806 0.41418,0.0689 z"
     inkscape:connector-curvature="0"
     style="fill:#5251a1" />
  <metadata
     id="metadata3409">
    <rdf:RDF>
      <cc:Work>
        <dc:format>image/svg+xml</dc:format>
        <dc:type
           rdf:resource="http://purl.org/dc/dcmitype/StillImage" />
        <cc:license
           rdf:resource="http://creativecommons.org/licenses/publicdomain/" />
        <dc:publisher>
          <cc:Agent
             rdf:about="http://openclipart.org/">
            <dc:title>Openclipart</dc:title>
          </cc:Agent>
        </dc:publisher>
        <dc:title></dc:title>
        <dc:date>2013-07-04T12:53:21</dc:date>
        <dc:description>A simple drawing of a Yellow detached house</dc:description>
        <dc:source>https://openclipart.org/detail/179978/yellow-detached-house-by-rdevries-179978</dc:source>
        <dc:creator>
          <cc:Agent>
            <dc:title>rdevries</dc:title>
          </cc:Agent>
        </dc:creator>
        <dc:subject>
          <rdf:Bag>
            <rdf:li>building</rdf:li>
            <rdf:li>buildings</rdf:li>
            <rdf:li>detached</rdf:li>
            <rdf:li>detached house</rdf:li>
            <rdf:li>home</rdf:li>
            <rdf:li>house</rdf:li>
            <rdf:li>live</rdf:li>
            <rdf:li>living</rdf:li>
            <rdf:li>neighbourhood</rdf:li>
            <rdf:li>to live</rdf:li>
          </rdf:Bag>
        </dc:subject>
      </cc:Work>
      <cc:License
         rdf:about="http://creativecommons.org/licenses/publicdomain/">
        <cc:permits
           rdf:resource="http://creativecommons.org/ns#Reproduction" />
        <cc:permits
           rdf:resource="http://creativecommons.org/ns#Distribution" />
        <cc:permits
           rdf:resource="http://creativecommons.org/ns#DerivativeWorks" />
      </cc:License>
    </rdf:RDF>
  </metadata>
</svg>
